<svg width="68px" height="32px" viewBox="0 0 68 32" version="1.1" xmlns="http://www.w3.org/2000/svg" xmlns:xlink="http://www.w3.org/1999/xlink">
    <!-- Generator: Sketch 54.1 (76490) - https://sketchapp.com -->
    <title>July-green</title>
    <desc>Created with Sketch.</desc>
    <g id="Design-iteration-2" stroke="none" stroke-width="1" fill="none" fill-rule="evenodd">
        <g id="Mobile-Home-design-Copy" transform="translate(-20.000000, -11.000000)" fill="#475F4C" fill-rule="nonzero">
            <g id="Nav">
                <g id="Menu-Copy" transform="translate(20.000000, 11.000000)">
                    <g id="Combined-Shape">
                        <path d="M4.16025221,32 L0,32 L0.38445791,27.5101439 L4.64911562,27.5101439 C6.58491648,27.5101439 7.78742221,26.4016447 8.01711431,23.7427363 L10.0720603,0 L15,0 C15,0 12.957337,23.5143334 12.9278578,23.7427363 C12.5679659,27.6417239 9.97133967,32 4.16025221,32 Z M45.3429,32 C39.5284183,32 37.7066293,27.6417239 38.0373049,23.7427363 C38.0520563,23.5143334 40.2069794,0 40.2069794,0 L45.13884,0 L42.9544142,23.741495 C42.7159344,26.4004034 43.7214832,27.5089026 45.6588243,27.5089026 L49,27.5089026 L48.583275,32 L45.3429,32 Z M68,0 L65.8346057,23.7426219 C64.932891,32.1425969 56.7714138,31.9998458 56.7714138,31.9998458 L52.3792319,31.9998458 L52.7782887,27.50877 L57.1794238,27.50877 C59.2028459,27.50877 60.4601304,26.4102067 60.7018667,23.7426219 L60.901395,21.5268756 C59.8700609,21.9068156 58.7719951,22.0868903 57.6692914,22.0569168 C48.9770177,21.7118314 50.0411689,13.8754132 50.0411689,13.8754132 L51.2958953,0 L56.4465408,0 L55.2007676,13.6979052 C54.9590313,16.36549 56.00016,17.5658411 58.0696272,17.5658411 C60.0930494,17.5658411 61.3503338,16.36549 61.5920701,13.6979052 L62.8314482,0 L68,0 Z M24.7113978,31.9998458 C16.1609862,31.9998458 17.0038033,24.4352754 17.0372586,23.7426219 C17.0629935,23.4062257 19.2028482,0 19.2028482,0 L24.3897119,0 L22.2344163,23.7426219 C21.9925085,26.4102067 23.0399178,27.50877 25.1205823,27.50877 C27.1562108,27.50877 28.4210798,26.4102067 28.6642744,23.7426219 L30.8234302,0 L36,0 L33.8292634,23.7426219 C32.9233959,32.1425969 24.7113978,31.9998458 24.7113978,31.9998458 Z" id="July-green"></path>
                    </g>
                </g>
            </g>
        </g>
    </g>
</svg>
